<?xml version="1.0" encoding="iso-8859-1"?>
<!-- Generator: Adobe Illustrator 16.0.0, SVG Export Plug-In . SVG Version: 6.00 Build 0)  -->
<!DOCTYPE svg PUBLIC "-//W3C//DTD SVG 1.1//EN" "http://www.w3.org/Graphics/SVG/1.1/DTD/svg11.dtd">
<svg version="1.1" xmlns="http://www.w3.org/2000/svg" xmlns:xlink="http://www.w3.org/1999/xlink" x="0px" y="0px" width="500px"
	 height="500px" viewBox="0 0 500 500" style="enable-background:new 0 0 500 500;" xml:space="preserve">
<g id="bart_lines">
	
		<path id="yellow" style="fill:none;stroke:#FFF200;stroke-width:7;stroke-linecap:round;stroke-linejoin:round;stroke-miterlimit:10;" d="
		M409,60.5c0,0-21.048,49.812-36.5,66.5c-12.5,13.5-103.429,16.889-112,27.5c-10.5,13-3,50.5-15,57
		c-11.305,6.124-82.037-1.64-98,4.5c-9.75,3.75-75.305,112.442-78,124c-3.454,14.81,34.5,61,40.5,73s26,8,26,8s-12,9.25-4,24"/>
	
		<path id="blue" style="fill:none;stroke:#5CA3FF;stroke-width:7;stroke-linecap:round;stroke-linejoin:round;stroke-miterlimit:10;" d="
		M79.667,336c0,0,60.668-106.999,71-112.333c4.682-2.417,94.452-3.05,98.333-3.333c13.333-0.972,46.984,76.562,66.667,87.667
		c11.559,6.521,121.667,2.334,121.667,2.334"/>
	
		<path id="red" style="fill:none;stroke:#FF0000;stroke-width:7;stroke-linecap:round;stroke-linejoin:round;stroke-miterlimit:10;" d="
		M201.002,63.5c6.332,15.169,41.592,71.842,41.998,84.5c0.464,14.484-2.788,40.078-7.5,55.5c-2.75,9-86.452-4.797-97.5,9.5
		c-12.75,16.5-76.961,113.683-77,130.5c-0.034,14.5,65.5,104.835,65.5,104.835"/>
	
		<path id="orange" style="fill:none;stroke:#FF8500;stroke-width:7;stroke-linecap:round;stroke-linejoin:round;stroke-miterlimit:10;" d="
		M208.002,60.5C214.333,75.669,249.22,133.359,250,146c1.667,27.002-8.333,56.669-6.06,66.141
		c3.727,15.529,152.726,236.194,152.726,236.194"/>
	
		<path id="green" style="fill:none;stroke:#5CA345;stroke-width:7;stroke-linecap:round;stroke-linejoin:round;stroke-miterlimit:10;" d="
		M86,339c0,0,61.702-106.408,69.022-108.5c4.399-1.257,88.022-2.25,88.022-2.25L390.5,452.5"/>
</g>
<g id="bart_points">
	<circle id="Pittsburg-Bay_Point" style="fill:none;" cx="409" cy="60.5" r="3.5"/>
	<circle id="North_Concord-Martinez" style="fill:none;" cx="402.567" cy="74.906" r="3.5"/>
	<circle id="Concord" style="fill:none;" cx="394.984" cy="90.617" r="3.5"/>
	<circle id="Pleasant_Hill-Contra_Costa_Centre" style="fill:none;" cx="386.168" cy="107.087" r="3.5"/>
	<circle id="Walnut_Creek" style="fill:none;" cx="376.031" cy="122.759" r="3.5"/>
	<circle id="Lafeyette" style="fill:none;" cx="342.25" cy="137.312" r="3.5"/>
	<circle id="Orinda" style="fill:none;" cx="307.68" cy="142.948" r="3.5"/>
	<circle id="Rockridge" style="fill:none;" cx="275.177" cy="148.64" r="3.5"/>
	<circle id="SFO" style="fill:none;" cx="136" cy="421" r="3.5"/>
	<circle id="Castro_Valley" style="fill:none;" cx="347.832" cy="311.401" r="3.5"/>
	<circle id="West_Dublin-Pleasanton" style="fill:none;" cx="412.331" cy="311.085" r="3.5"/>
	<circle id="Dublin-Pleasanton" style="fill:none;" cx="437.333" cy="310.334" r="3.5"/>
	<path id="Richmond" style="fill:none;" d="M210.716,58.781c0.889,1.717,0.218,3.829-1.499,4.718l-6.216,3.219
		c-1.716,0.889-3.828,0.218-4.717-1.498l0,0c-0.889-1.717-0.218-3.829,1.499-4.718l6.216-3.219
		C207.715,56.394,209.827,57.064,210.716,58.781L210.716,58.781z"/>
	<path id="El_Cerrito_del_Norte" style="fill:none;" d="M218.793,73.936c0.846,1.738,0.124,3.833-1.614,4.679
		l-6.294,3.064c-1.738,0.846-3.833,0.123-4.679-1.615l0,0c-0.846-1.738-0.124-3.833,1.614-4.679l6.294-3.064
		C215.853,71.475,217.947,72.198,218.793,73.936L218.793,73.936z"/>
	<path id="El_Cerrito_Plaza" style="fill:none;" d="M226.686,88.723c0.905,1.708,0.254,3.826-1.454,4.731l-6.186,3.277
		c-1.708,0.905-3.827,0.254-4.731-1.455l0,0c-0.905-1.708-0.254-3.826,1.454-4.731l6.186-3.277
		C223.663,86.364,225.781,87.015,226.686,88.723L226.686,88.723z"/>
	<path id="North_Berkeley" style="fill:none;" d="M234.568,103.51c0.963,1.676,0.386,3.815-1.29,4.779l-6.068,3.49
		c-1.676,0.964-3.815,0.387-4.779-1.289l0,0c-0.963-1.676-0.386-3.815,1.29-4.779l6.068-3.49
		C231.465,101.257,233.604,101.834,234.568,103.51L234.568,103.51z"/>
	<path id="Downtown_Berkeley" style="fill:none;" d="M243.8,120.95c0.842,1.74,0.115,3.833-1.625,4.675l-6.3,3.051
		c-1.74,0.842-3.833,0.114-4.676-1.625l0,0c-0.842-1.74-0.115-3.833,1.625-4.675l6.3-3.051
		C240.865,118.482,242.958,119.209,243.8,120.95L243.8,120.95z"/>
	<path id="Ashby" style="fill:none;" d="M252.411,140.887c0.307,1.909-0.991,3.705-2.899,4.012l-6.911,1.113
		c-1.909,0.307-3.705-0.991-4.012-2.899l0,0c-0.307-1.909,0.991-3.705,2.899-4.012l6.911-1.113
		C250.308,137.681,252.104,138.979,252.411,140.887L252.411,140.887z"/>
	<path id="Hayward" style="fill:none;" d="M325.358,335.169c1.058,1.617,0.604,3.787-1.014,4.845l-5.858,3.832
		c-1.618,1.058-3.787,0.604-4.845-1.015l0,0c-1.058-1.617-0.604-3.786,1.014-4.844l5.858-3.833
		C322.131,333.097,324.3,333.552,325.358,335.169L325.358,335.169z"/>
	<path id="South_Hayward" style="fill:none;" d="M350.419,372.264c1.031,1.634,0.543,3.796-1.091,4.828l-5.919,3.736
		c-1.635,1.031-3.796,0.543-4.828-1.092l0,0c-1.031-1.634-0.543-3.796,1.091-4.828l5.919-3.736
		C347.226,370.141,349.388,370.629,350.419,372.264L350.419,372.264z"/>
	<path id="Union_City" style="fill:none;" d="M374.418,409.262c1.032,1.635,0.544,3.796-1.09,4.828l-5.918,3.738
		c-1.634,1.032-3.796,0.544-4.828-1.09l0,0c-1.032-1.635-0.544-3.796,1.09-4.828l5.918-3.738
		C371.225,407.14,373.386,407.628,374.418,409.262L374.418,409.262z"/>
	<path id="Fremont" style="fill:none;" d="M399.333,446.131c1.069,1.611,0.628,3.783-0.982,4.852l-5.834,3.869
		c-1.611,1.067-3.783,0.627-4.851-0.982l0,0c-1.068-1.611-0.628-3.783,0.982-4.852l5.834-3.869
		C396.094,444.081,398.266,444.521,399.333,446.131L399.333,446.131z"/>
	<path id="Colma" style="fill:none;" d="M78.689,357.729c0.903,1.709,0.25,3.826-1.459,4.729l-6.189,3.271
		c-1.709,0.903-3.827,0.25-4.729-1.459l0,0c-0.903-1.709-0.25-3.826,1.459-4.729l6.189-3.271
		C75.668,355.367,77.786,356.021,78.689,357.729L78.689,357.729z"/>
	<path id="South_San_Francisco" style="fill:none;" d="M94.345,384.147c1.063,1.613,0.618,3.784-0.996,4.849l-5.845,3.853
		c-1.614,1.063-3.785,0.617-4.849-0.996l0,0c-1.063-1.613-0.618-3.784,0.996-4.849l5.845-3.853
		C91.11,382.088,93.281,382.534,94.345,384.147L94.345,384.147z"/>
	<path id="San_Bruno" style="fill:none;" d="M112.139,410.852c1.145,1.557,0.812,3.748-0.745,4.894l-5.639,4.148
		c-1.557,1.146-3.748,0.812-4.894-0.745l0,0c-1.145-1.557-0.812-3.748,0.745-4.894l5.639-4.148
		C108.802,408.961,110.993,409.295,112.139,410.852L112.139,410.852z"/>
	<path id="Millbrae" style="fill:none;" d="M135.75,443.847c0.871,1.726,0.178,3.831-1.548,4.702l-6.25,3.152
		c-1.726,0.871-3.831,0.178-4.702-1.548l0,0c-0.87-1.726-0.177-3.831,1.549-4.702l6.25-3.152
		C132.774,441.428,134.879,442.122,135.75,443.847L135.75,443.847z"/>
	<path id="MacArthur" style="fill:none;" d="M257,175.5c0,1.933-1.567,3.5-3.5,3.5h-14c-1.933,0-3.5-1.567-3.5-3.5l0,0
		c0-1.933,1.567-3.5,3.5-3.5h14C255.433,172,257,173.567,257,175.5L257,175.5z"/>
	<path id="19th_St-Oakland" style="fill:none;" d="M255,190.5c0,1.933-1.567,3.5-3.5,3.5h-14c-1.933,0-3.5-1.567-3.5-3.5
		l0,0c0-1.933,1.567-3.5,3.5-3.5h14C253.433,187,255,188.567,255,190.5L255,190.5z"/>
	<path id="12th_St-Oakland" style="fill:none;" d="M252,204.5c0,1.933-1.567,3.5-3.5,3.5h-14c-1.933,0-3.5-1.567-3.5-3.5
		l0,0c0-1.933,1.567-3.5,3.5-3.5h14C250.433,201,252,202.567,252,204.5L252,204.5z"/>
	<path id="Lake_Merritt" style="fill:none;" d="M263.797,228.268c1.055,1.62,0.598,3.788-1.022,4.843l-11.73,7.643
		c-1.62,1.055-3.788,0.598-4.843-1.022l0,0c-1.055-1.62-0.598-3.788,1.022-4.843l11.73-7.643
		C260.574,226.191,262.742,226.648,263.797,228.268L263.797,228.268z"/>
	<path id="Fruitvale" style="fill:none;" d="M273.708,243.132c1.08,1.603,0.656,3.778-0.947,4.858l-11.61,7.824
		c-1.603,1.08-3.778,0.657-4.858-0.947l0,0c-1.08-1.603-0.656-3.778,0.947-4.858l11.61-7.824
		C270.452,241.105,272.627,241.529,273.708,243.132L273.708,243.132z"/>
	<path id="Coliseum-Oakland_Airport" style="fill:none;" d="M282.713,257.14c1.079,1.604,0.653,3.779-0.951,4.857l-11.617,7.813
		c-1.604,1.079-3.779,0.653-4.858-0.951l0,0c-1.079-1.604-0.653-3.778,0.951-4.857l11.617-7.813
		C279.459,255.11,281.634,255.536,282.713,257.14L282.713,257.14z"/>
	<path id="San_Leandro" style="fill:none;" d="M292.717,273.147c1.078,1.605,0.65,3.779-0.955,4.857l-11.624,7.804
		c-1.605,1.077-3.779,0.65-4.856-0.955l0,0c-1.078-1.604-0.65-3.778,0.955-4.856l11.624-7.804
		C289.466,271.115,291.64,271.542,292.717,273.147L292.717,273.147z"/>
	<path id="Bay_Fair" style="fill:none;" d="M302.863,288.371c1.036,1.631,0.554,3.794-1.078,4.83l-11.818,7.506
		c-1.631,1.037-3.794,0.554-4.831-1.078l0,0c-1.036-1.631-0.554-3.794,1.078-4.83l11.818-7.506
		C299.664,286.256,301.827,286.739,302.863,288.371L302.863,288.371z"/>
	<path id="West_Oakland" style="fill:none;" d="M217,229.5c0,1.933-1.567,3.5-3.5,3.5l0,0c-1.933,0-3.5-1.567-3.5-3.5v-21
		c0-1.933,1.567-3.5,3.5-3.5l0,0c1.933,0,3.5,1.567,3.5,3.5V229.5z"/>
	<path id="Embarcadero" style="fill:none;" d="M145.201,246.687c-1.062,1.616-3.231,2.065-4.847,1.004l-17.551-11.53
		c-1.616-1.061-2.065-3.231-1.004-4.847l0,0c1.062-1.616,3.231-2.065,4.847-1.004l17.551,11.53
		C145.813,242.901,146.263,245.071,145.201,246.687L145.201,246.687z"/>
	<path id="Montgomery_St" style="fill:none;" d="M138.453,257.289c-1.006,1.65-3.16,2.172-4.811,1.166l-17.929-10.934
		c-1.65-1.006-2.173-3.161-1.166-4.811l0,0c1.006-1.65,3.16-2.172,4.811-1.166l17.929,10.934
		C138.937,253.485,139.459,255.639,138.453,257.289L138.453,257.289z"/>
	<path id="Powell_St" style="fill:none;" d="M131.306,268.525c-1.039,1.63-3.203,2.109-4.833,1.07l-17.708-11.288
		c-1.63-1.039-2.109-3.203-1.07-4.833l0,0c1.039-1.63,3.203-2.109,4.833-1.07l17.708,11.288
		C131.866,264.731,132.345,266.895,131.306,268.525L131.306,268.525z"/>
	<path id="Civic_Center-UN_Plaza" style="fill:none;" d="M123.5,280.211c-0.996,1.657-3.146,2.193-4.803,1.197l-18-10.816
		c-1.657-0.996-2.193-3.146-1.197-4.803l0,0c0.996-1.657,3.146-2.193,4.803-1.197l18,10.816
		C123.96,276.404,124.496,278.554,123.5,280.211L123.5,280.211z"/>
	<path id="16th_St_Mission" style="fill:none;" d="M115.586,293.067c-0.976,1.668-3.12,2.229-4.788,1.254l-18.129-10.6
		c-1.668-0.977-2.23-3.12-1.255-4.789l0,0c0.976-1.668,3.12-2.23,4.788-1.254l18.129,10.6
		C116,289.255,116.561,291.398,115.586,293.067L115.586,293.067z"/>
	<path id="24th_St_Mission" style="fill:none;" d="M107.848,305.599c-0.911,1.704-3.032,2.349-4.737,1.438
		l-18.521-9.898c-1.705-0.911-2.348-3.032-1.438-4.736l0,0c0.911-1.704,3.032-2.349,4.737-1.438l18.521,9.898
		C108.115,301.773,108.758,303.895,107.848,305.599L107.848,305.599z"/>
	<path id="Glen_Park" style="fill:none;" d="M100.759,317.762c-0.933,1.691-3.062,2.308-4.755,1.374l-18.389-10.142
		c-1.692-0.934-2.308-3.063-1.374-4.756l0,0c0.933-1.691,3.062-2.308,4.755-1.374l18.389,10.142
		C101.077,313.939,101.692,316.069,100.759,317.762L100.759,317.762z"/>
	<path id="Balboa_Park" style="fill:none;" d="M94.823,328.644c-0.917,1.701-3.04,2.337-4.742,1.42l-18.485-9.965
		c-1.702-0.918-2.337-3.041-1.42-4.742l0,0c0.917-1.701,3.04-2.337,4.742-1.42l18.485,9.965
		C95.105,324.819,95.74,326.942,94.823,328.644L94.823,328.644z"/>
	<path id="Daly_City" style="fill:none;" d="M87.985,340.334c-0.875,1.724-2.981,2.413-4.705,1.538l-18.728-9.502
		c-1.724-0.874-2.412-2.981-1.538-4.704l0,0c0.875-1.724,2.981-2.413,4.705-1.538l18.728,9.502
		C88.171,336.504,88.859,338.611,87.985,340.334L87.985,340.334z"/>
</g>
</svg>
